<svg width="107" height="19" viewBox="0 0 107 19" fill="none" xmlns="http://www.w3.org/2000/svg">
<path d="M12.1 11.448L9.988 5.676C9.884 5.42 9.776 5.116 9.664 4.764C9.552 4.412 9.44 4.032 9.328 3.624C9.224 4.032 9.116 4.416 9.004 4.776C8.892 5.128 8.784 5.436 8.68 5.7L6.58 11.448H12.1ZM17.8 18H15.304C15.024 18 14.796 17.932 14.62 17.796C14.444 17.652 14.312 17.476 14.224 17.268L12.928 13.728H5.74L4.444 17.268C4.38 17.452 4.256 17.62 4.072 17.772C3.888 17.924 3.66 18 3.388 18H0.868L7.696 0.647999H10.984L17.8 18ZM26.6401 8.088C26.5601 8.216 26.4761 8.308 26.3881 8.364C26.3001 8.412 26.1881 8.436 26.0521 8.436C25.9081 8.436 25.7521 8.396 25.5841 8.316C25.4241 8.236 25.2361 8.148 25.0201 8.052C24.8041 7.948 24.5561 7.856 24.2761 7.776C24.0041 7.696 23.6801 7.656 23.3041 7.656C22.7201 7.656 22.2601 7.78 21.9241 8.028C21.5961 8.276 21.4321 8.6 21.4321 9C21.4321 9.264 21.5161 9.488 21.6841 9.672C21.8601 9.848 22.0881 10.004 22.3681 10.14C22.6561 10.276 22.9801 10.4 23.3401 10.512C23.7001 10.616 24.0641 10.732 24.4321 10.86C24.8081 10.988 25.1761 11.136 25.5361 11.304C25.8961 11.464 26.2161 11.672 26.4961 11.928C26.7841 12.176 27.0121 12.476 27.1801 12.828C27.3561 13.18 27.4441 13.604 27.4441 14.1C27.4441 14.692 27.3361 15.24 27.1201 15.744C26.9121 16.24 26.6001 16.672 26.1841 17.04C25.7681 17.4 25.2521 17.684 24.6361 17.892C24.0281 18.092 23.3241 18.192 22.5241 18.192C22.1001 18.192 21.6841 18.152 21.2761 18.072C20.8761 18 20.4881 17.896 20.1121 17.76C19.7441 17.624 19.4001 17.464 19.0801 17.28C18.7681 17.096 18.4921 16.896 18.2521 16.68L18.9361 15.552C19.0241 15.416 19.1281 15.312 19.2481 15.24C19.3681 15.168 19.5201 15.132 19.7041 15.132C19.8881 15.132 20.0601 15.184 20.2201 15.288C20.3881 15.392 20.5801 15.504 20.7961 15.624C21.0121 15.744 21.2641 15.856 21.5521 15.96C21.8481 16.064 22.2201 16.116 22.6681 16.116C23.0201 16.116 23.3201 16.076 23.5681 15.996C23.8241 15.908 24.0321 15.796 24.1921 15.66C24.3601 15.524 24.4801 15.368 24.5521 15.192C24.6321 15.008 24.6721 14.82 24.6721 14.628C24.6721 14.34 24.5841 14.104 24.4081 13.92C24.2401 13.736 24.0121 13.576 23.7241 13.44C23.4441 13.304 23.1201 13.184 22.7521 13.08C22.3921 12.968 22.0201 12.848 21.6361 12.72C21.2601 12.592 20.8881 12.444 20.5201 12.276C20.1601 12.1 19.8361 11.88 19.5481 11.616C19.2681 11.352 19.0401 11.028 18.8641 10.644C18.6961 10.26 18.6121 9.796 18.6121 9.252C18.6121 8.748 18.7121 8.268 18.9121 7.812C19.1121 7.356 19.4041 6.96 19.7881 6.624C20.1801 6.28 20.6641 6.008 21.2401 5.808C21.8241 5.6 22.4961 5.496 23.2561 5.496C24.1041 5.496 24.8761 5.636 25.5721 5.916C26.2681 6.196 26.8481 6.564 27.3121 7.02L26.6401 8.088ZM37.1869 8.088C37.1069 8.216 37.0229 8.308 36.9349 8.364C36.8469 8.412 36.7349 8.436 36.5989 8.436C36.4549 8.436 36.2989 8.396 36.1309 8.316C35.9709 8.236 35.7829 8.148 35.5669 8.052C35.3509 7.948 35.1029 7.856 34.8229 7.776C34.5509 7.696 34.2269 7.656 33.8509 7.656C33.2669 7.656 32.8069 7.78 32.4709 8.028C32.1429 8.276 31.9789 8.6 31.9789 9C31.9789 9.264 32.0629 9.488 32.2309 9.672C32.4069 9.848 32.6349 10.004 32.9149 10.14C33.2029 10.276 33.5269 10.4 33.8869 10.512C34.2469 10.616 34.6109 10.732 34.9789 10.86C35.3549 10.988 35.7229 11.136 36.0829 11.304C36.4429 11.464 36.7629 11.672 37.0429 11.928C37.3309 12.176 37.5589 12.476 37.7269 12.828C37.9029 13.18 37.9909 13.604 37.9909 14.1C37.9909 14.692 37.8829 15.24 37.6669 15.744C37.4589 16.24 37.1469 16.672 36.7309 17.04C36.3149 17.4 35.7989 17.684 35.1829 17.892C34.5749 18.092 33.8709 18.192 33.0709 18.192C32.6469 18.192 32.2309 18.152 31.8229 18.072C31.4229 18 31.0349 17.896 30.6589 17.76C30.2909 17.624 29.9469 17.464 29.6269 17.28C29.3149 17.096 29.0389 16.896 28.7989 16.68L29.4829 15.552C29.5709 15.416 29.6749 15.312 29.7949 15.24C29.9149 15.168 30.0669 15.132 30.2509 15.132C30.4349 15.132 30.6069 15.184 30.7669 15.288C30.9349 15.392 31.1269 15.504 31.3429 15.624C31.5589 15.744 31.8109 15.856 32.0989 15.96C32.3949 16.064 32.7669 16.116 33.2149 16.116C33.5669 16.116 33.8669 16.076 34.1149 15.996C34.3709 15.908 34.5789 15.796 34.7389 15.66C34.9069 15.524 35.0269 15.368 35.0989 15.192C35.1789 15.008 35.2189 14.82 35.2189 14.628C35.2189 14.34 35.1309 14.104 34.9549 13.92C34.7869 13.736 34.5589 13.576 34.2709 13.44C33.9909 13.304 33.6669 13.184 33.2989 13.08C32.9389 12.968 32.5669 12.848 32.1829 12.72C31.8069 12.592 31.4349 12.444 31.0669 12.276C30.7069 12.1 30.3829 11.88 30.0949 11.616C29.8149 11.352 29.5869 11.028 29.4109 10.644C29.2429 10.26 29.1589 9.796 29.1589 9.252C29.1589 8.748 29.2589 8.268 29.4589 7.812C29.6589 7.356 29.9509 6.96 30.3349 6.624C30.7269 6.28 31.2109 6.008 31.7869 5.808C32.3709 5.6 33.0429 5.496 33.8029 5.496C34.6509 5.496 35.4229 5.636 36.1189 5.916C36.8149 6.196 37.3949 6.564 37.8589 7.02L37.1869 8.088ZM48.1538 10.428C48.1538 10.044 48.0978 9.684 47.9858 9.348C47.8818 9.004 47.7218 8.704 47.5058 8.448C47.2898 8.192 47.0138 7.992 46.6778 7.848C46.3498 7.696 45.9658 7.62 45.5258 7.62C44.6698 7.62 43.9938 7.864 43.4978 8.352C43.0098 8.84 42.6978 9.532 42.5618 10.428H48.1538ZM42.5018 12.216C42.5498 12.848 42.6618 13.396 42.8378 13.86C43.0138 14.316 43.2458 14.696 43.5338 15C43.8218 15.296 44.1618 15.52 44.5538 15.672C44.9538 15.816 45.3938 15.888 45.8738 15.888C46.3538 15.888 46.7658 15.832 47.1098 15.72C47.4618 15.608 47.7658 15.484 48.0218 15.348C48.2858 15.212 48.5138 15.088 48.7058 14.976C48.9058 14.864 49.0978 14.808 49.2818 14.808C49.5298 14.808 49.7138 14.9 49.8338 15.084L50.6858 16.164C50.3578 16.548 49.9898 16.872 49.5818 17.136C49.1738 17.392 48.7458 17.6 48.2978 17.76C47.8578 17.912 47.4058 18.02 46.9418 18.084C46.4858 18.148 46.0418 18.18 45.6098 18.18C44.7538 18.18 43.9578 18.04 43.2218 17.76C42.4858 17.472 41.8458 17.052 41.3018 16.5C40.7578 15.94 40.3298 15.252 40.0178 14.436C39.7058 13.612 39.5498 12.66 39.5498 11.58C39.5498 10.74 39.6858 9.952 39.9578 9.216C40.2298 8.472 40.6178 7.828 41.1218 7.284C41.6338 6.732 42.2538 6.296 42.9818 5.976C43.7178 5.656 44.5458 5.496 45.4658 5.496C46.2418 5.496 46.9578 5.62 47.6138 5.868C48.2698 6.116 48.8338 6.48 49.3058 6.96C49.7778 7.432 50.1458 8.016 50.4098 8.712C50.6818 9.4 50.8178 10.188 50.8178 11.076C50.8178 11.524 50.7698 11.828 50.6738 11.988C50.5778 12.14 50.3938 12.216 50.1218 12.216H42.5018ZM60.5541 8.088C60.4741 8.216 60.3901 8.308 60.3021 8.364C60.2141 8.412 60.1021 8.436 59.9661 8.436C59.8221 8.436 59.6661 8.396 59.4981 8.316C59.3381 8.236 59.1501 8.148 58.9341 8.052C58.7181 7.948 58.4701 7.856 58.1901 7.776C57.9181 7.696 57.5941 7.656 57.2181 7.656C56.6341 7.656 56.1741 7.78 55.8381 8.028C55.5101 8.276 55.3461 8.6 55.3461 9C55.3461 9.264 55.4301 9.488 55.5981 9.672C55.7741 9.848 56.0021 10.004 56.2821 10.14C56.5701 10.276 56.8941 10.4 57.2541 10.512C57.6141 10.616 57.9781 10.732 58.3461 10.86C58.7221 10.988 59.0901 11.136 59.4501 11.304C59.8101 11.464 60.1301 11.672 60.4101 11.928C60.6981 12.176 60.9261 12.476 61.0941 12.828C61.2701 13.18 61.3581 13.604 61.3581 14.1C61.3581 14.692 61.2501 15.24 61.0341 15.744C60.8261 16.24 60.5141 16.672 60.0981 17.04C59.6821 17.4 59.1661 17.684 58.5501 17.892C57.9421 18.092 57.2381 18.192 56.4381 18.192C56.0141 18.192 55.5981 18.152 55.1901 18.072C54.7901 18 54.4021 17.896 54.0261 17.76C53.6581 17.624 53.3141 17.464 52.9941 17.28C52.6821 17.096 52.4061 16.896 52.1661 16.68L52.8501 15.552C52.9381 15.416 53.0421 15.312 53.1621 15.24C53.2821 15.168 53.4341 15.132 53.6181 15.132C53.8021 15.132 53.9741 15.184 54.1341 15.288C54.3021 15.392 54.4941 15.504 54.7101 15.624C54.9261 15.744 55.1781 15.856 55.4661 15.96C55.7621 16.064 56.1341 16.116 56.5821 16.116C56.9341 16.116 57.2341 16.076 57.4821 15.996C57.7381 15.908 57.9461 15.796 58.1061 15.66C58.2741 15.524 58.3941 15.368 58.4661 15.192C58.5461 15.008 58.5861 14.82 58.5861 14.628C58.5861 14.34 58.4981 14.104 58.3221 13.92C58.1541 13.736 57.9261 13.576 57.6381 13.44C57.3581 13.304 57.0341 13.184 56.6661 13.08C56.3061 12.968 55.9341 12.848 55.5501 12.72C55.1741 12.592 54.8021 12.444 54.4341 12.276C54.0741 12.1 53.7501 11.88 53.4621 11.616C53.1821 11.352 52.9541 11.028 52.7781 10.644C52.6101 10.26 52.5261 9.796 52.5261 9.252C52.5261 8.748 52.6261 8.268 52.8261 7.812C53.0261 7.356 53.3181 6.96 53.7021 6.624C54.0941 6.28 54.5781 6.008 55.1541 5.808C55.7381 5.6 56.4101 5.496 57.1701 5.496C58.0181 5.496 58.7901 5.636 59.4861 5.916C60.1821 6.196 60.7621 6.564 61.2261 7.02L60.5541 8.088ZM71.101 8.088C71.021 8.216 70.937 8.308 70.849 8.364C70.761 8.412 70.649 8.436 70.513 8.436C70.369 8.436 70.213 8.396 70.045 8.316C69.885 8.236 69.697 8.148 69.481 8.052C69.265 7.948 69.017 7.856 68.737 7.776C68.465 7.696 68.141 7.656 67.765 7.656C67.181 7.656 66.721 7.78 66.385 8.028C66.057 8.276 65.893 8.6 65.893 9C65.893 9.264 65.977 9.488 66.145 9.672C66.321 9.848 66.549 10.004 66.829 10.14C67.117 10.276 67.441 10.4 67.801 10.512C68.161 10.616 68.525 10.732 68.893 10.86C69.269 10.988 69.637 11.136 69.997 11.304C70.357 11.464 70.677 11.672 70.957 11.928C71.245 12.176 71.473 12.476 71.641 12.828C71.817 13.18 71.905 13.604 71.905 14.1C71.905 14.692 71.797 15.24 71.581 15.744C71.373 16.24 71.061 16.672 70.645 17.04C70.229 17.4 69.713 17.684 69.097 17.892C68.489 18.092 67.785 18.192 66.985 18.192C66.561 18.192 66.145 18.152 65.737 18.072C65.337 18 64.949 17.896 64.573 17.76C64.205 17.624 63.861 17.464 63.541 17.28C63.229 17.096 62.953 16.896 62.713 16.68L63.397 15.552C63.485 15.416 63.589 15.312 63.709 15.24C63.829 15.168 63.981 15.132 64.165 15.132C64.349 15.132 64.521 15.184 64.681 15.288C64.849 15.392 65.041 15.504 65.257 15.624C65.473 15.744 65.725 15.856 66.013 15.96C66.309 16.064 66.681 16.116 67.129 16.116C67.481 16.116 67.781 16.076 68.029 15.996C68.285 15.908 68.493 15.796 68.653 15.66C68.821 15.524 68.941 15.368 69.013 15.192C69.093 15.008 69.133 14.82 69.133 14.628C69.133 14.34 69.045 14.104 68.869 13.92C68.701 13.736 68.473 13.576 68.185 13.44C67.905 13.304 67.581 13.184 67.213 13.08C66.853 12.968 66.481 12.848 66.097 12.72C65.721 12.592 65.349 12.444 64.981 12.276C64.621 12.1 64.297 11.88 64.009 11.616C63.729 11.352 63.501 11.028 63.325 10.644C63.157 10.26 63.073 9.796 63.073 9.252C63.073 8.748 63.173 8.268 63.373 7.812C63.573 7.356 63.865 6.96 64.249 6.624C64.641 6.28 65.125 6.008 65.701 5.808C66.285 5.6 66.957 5.496 67.717 5.496C68.565 5.496 69.337 5.636 70.033 5.916C70.729 6.196 71.309 6.564 71.773 7.02L71.101 8.088ZM93.1152 0.647999V18H90.2712V6.792C90.2712 6.344 90.2952 5.86 90.3432 5.34L85.0992 15.192C84.8512 15.664 84.4712 15.9 83.9592 15.9H83.5032C82.9912 15.9 82.6112 15.664 82.3632 15.192L77.0592 5.304C77.0832 5.568 77.1032 5.828 77.1192 6.084C77.1352 6.34 77.1432 6.576 77.1432 6.792V18H74.2992V0.647999H76.7352C76.8792 0.647999 77.0032 0.651999 77.1072 0.659999C77.2112 0.667999 77.3032 0.687999 77.3832 0.719999C77.4712 0.751999 77.5472 0.803999 77.6112 0.875999C77.6832 0.947999 77.7512 1.044 77.8152 1.164L83.0112 10.8C83.1472 11.056 83.2712 11.32 83.3832 11.592C83.5032 11.864 83.6192 12.144 83.7312 12.432C83.8432 12.136 83.9592 11.852 84.0792 11.58C84.1992 11.3 84.3272 11.032 84.4632 10.776L89.5872 1.164C89.6512 1.044 89.7192 0.947999 89.7912 0.875999C89.8632 0.803999 89.9392 0.751999 90.0192 0.719999C90.1072 0.687999 90.2032 0.667999 90.3072 0.659999C90.4112 0.651999 90.5352 0.647999 90.6792 0.647999H93.1152ZM104.076 10.428C104.076 10.044 104.02 9.684 103.908 9.348C103.804 9.004 103.644 8.704 103.428 8.448C103.212 8.192 102.936 7.992 102.6 7.848C102.272 7.696 101.888 7.62 101.448 7.62C100.592 7.62 99.9157 7.864 99.4197 8.352C98.9317 8.84 98.6197 9.532 98.4837 10.428H104.076ZM98.4237 12.216C98.4717 12.848 98.5837 13.396 98.7597 13.86C98.9357 14.316 99.1677 14.696 99.4557 15C99.7437 15.296 100.084 15.52 100.476 15.672C100.876 15.816 101.316 15.888 101.796 15.888C102.276 15.888 102.688 15.832 103.032 15.72C103.384 15.608 103.688 15.484 103.944 15.348C104.208 15.212 104.436 15.088 104.628 14.976C104.828 14.864 105.02 14.808 105.204 14.808C105.452 14.808 105.636 14.9 105.756 15.084L106.608 16.164C106.28 16.548 105.912 16.872 105.504 17.136C105.096 17.392 104.668 17.6 104.22 17.76C103.78 17.912 103.328 18.02 102.864 18.084C102.408 18.148 101.964 18.18 101.532 18.18C100.676 18.18 99.8797 18.04 99.1437 17.76C98.4077 17.472 97.7677 17.052 97.2237 16.5C96.6797 15.94 96.2517 15.252 95.9397 14.436C95.6277 13.612 95.4717 12.66 95.4717 11.58C95.4717 10.74 95.6077 9.952 95.8797 9.216C96.1517 8.472 96.5397 7.828 97.0437 7.284C97.5557 6.732 98.1757 6.296 98.9037 5.976C99.6397 5.656 100.468 5.496 101.388 5.496C102.164 5.496 102.88 5.62 103.536 5.868C104.192 6.116 104.756 6.48 105.228 6.96C105.7 7.432 106.068 8.016 106.332 8.712C106.604 9.4 106.74 10.188 106.74 11.076C106.74 11.524 106.692 11.828 106.596 11.988C106.5 12.14 106.316 12.216 106.044 12.216H98.4237Z" fill="#003B66"/>
</svg>
